# Tiled2Unity generated file. Do not modify by hand.
# Wavefront file for 'level0_mesh_0008.obj'

# Vertices (Count = 24)
v -6800 -1000 0
v -6900 -1000 0
v -6900 -900 0
v -6800 -900 0
v -6900 -1000 0
v -7000 -1000 0
v -7000 -900 0
v -6900 -900 0
v -7000 -1000 0
v -7100 -1000 0
v -7100 -900 0
v -7000 -900 0
v -7100 -1000 0
v -7200 -1000 0
v -7200 -900 0
v -7100 -900 0
v -7200 -1000 0
v -7300 -1000 0
v -7300 -900 0
v -7200 -900 0
v -7300 -1000 0
v -7400 -1000 0
v -7400 -900 0
v -7300 -900 0

# Texture cooridinates (Count = 4)
vt 0 0.21875
vt 0.78125 0.21875
vt 0.78125 1
vt 0 1

# Normal
vn 0 0 -1

# Mesh description
g level0_mesh_0008

# Faces
f 1/1/1 2/2/1 3/3/1 4/4/1
f 5/1/1 6/2/1 7/3/1 8/4/1
f 9/1/1 10/2/1 11/3/1 12/4/1
f 13/1/1 14/2/1 15/3/1 16/4/1
f 17/1/1 18/2/1 19/3/1 20/4/1
f 21/1/1 22/2/1 23/3/1 24/4/1

