# Tiled2Unity generated file. Do not modify by hand.
# Wavefront file for 'level0_mesh_0005.obj'

# Vertices (Count = 16)
v -7000 -3200 0
v -7100 -3200 0
v -7100 -3100 0
v -7000 -3100 0
v -7100 -3200 0
v -7200 -3200 0
v -7200 -3100 0
v -7100 -3100 0
v -7200 -3200 0
v -7300 -3200 0
v -7300 -3100 0
v -7200 -3100 0
v -7300 -3200 0
v -7400 -3200 0
v -7400 -3100 0
v -7300 -3100 0

# Texture cooridinates (Count = 4)
vt 0 0.21875
vt 0.78125 0.21875
vt 0.78125 1
vt 0 1

# Normal
vn 0 0 -1

# Mesh description
g level0_mesh_0005

# Faces
f 1/1/1 2/2/1 3/3/1 4/4/1
f 5/1/1 6/2/1 7/3/1 8/4/1
f 9/1/1 10/2/1 11/3/1 12/4/1
f 13/1/1 14/2/1 15/3/1 16/4/1

